<svg width="1500" height="720" viewBox="0 0 1500 720" fill="none" xmlns="http://www.w3.org/2000/svg">
<defs>
<linearGradient id="bg" x1="0" y1="0" x2="1500" y2="720"><stop stop-color="#050816"/><stop offset=".48" stop-color="#071B3A"/><stop offset="1" stop-color="#190A35"/></linearGradient>
<filter id="shadow"><feDropShadow dx="0" dy="12" stdDeviation="14" flood-color="#000" flood-opacity=".32"/></filter>
</defs>
<rect width="1500" height="720" rx="42" fill="url(#bg)"/>
<text x="90" y="105" font-size="56" font-weight="950" fill="#FFFFFF" font-family="Inter, Segoe UI, Arial">Portfolio Categories</text>
<text x="92" y="154" font-size="27" font-weight="650" fill="#BBD7FF" font-family="Inter, Segoe UI, Arial">Selected product experience across Android, iOS, AI, utility, and business software.</text>

<g font-family="Inter, Segoe UI, Arial" font-size="23" font-weight="800" fill="#EAF2FF" filter="url(#shadow)">
<rect x="92" y="225" width="285" height="72" rx="24" fill="#0B1225" stroke="#22D3EE"/><text x="146" y="270">Business Apps</text>
<rect x="407" y="225" width="285" height="72" rx="24" fill="#0B1225" stroke="#3B82F6"/><text x="457" y="270">Laundry Systems</text>
<rect x="722" y="225" width="285" height="72" rx="24" fill="#0B1225" stroke="#8B5CF6"/><text x="794" y="270">Driver Apps</text>
<rect x="1037" y="225" width="285" height="72" rx="24" fill="#0B1225" stroke="#A855F7"/><text x="1102" y="270">Delivery Apps</text>

<rect x="92" y="330" width="285" height="72" rx="24" fill="#0B1225" stroke="#22D3EE"/><text x="147" y="375">AI Writing Apps</text>
<rect x="407" y="330" width="285" height="72" rx="24" fill="#0B1225" stroke="#3B82F6"/><text x="453" y="375">AI Keyboard Apps</text>
<rect x="722" y="330" width="285" height="72" rx="24" fill="#0B1225" stroke="#8B5CF6"/><text x="773" y="375">Translator Apps</text>
<rect x="1037" y="330" width="285" height="72" rx="24" fill="#0B1225" stroke="#A855F7"/><text x="1112" y="375">AI Utilities</text>

<rect x="92" y="435" width="285" height="72" rx="24" fill="#0B1225" stroke="#22D3EE"/><text x="153" y="480">Scanner / OCR</text>
<rect x="407" y="435" width="285" height="72" rx="24" fill="#0B1225" stroke="#3B82F6"/><text x="496" y="480">Map Apps</text>
<rect x="722" y="435" width="285" height="72" rx="24" fill="#0B1225" stroke="#8B5CF6"/><text x="789" y="480">GPS Utilities</text>
<rect x="1037" y="435" width="285" height="72" rx="24" fill="#0B1225" stroke="#A855F7"/><text x="1126" y="480">VPN Apps</text>

<rect x="92" y="540" width="285" height="72" rx="24" fill="#0B1225" stroke="#22D3EE"/><text x="154" y="585">Gold Scanner</text>
<rect x="407" y="540" width="285" height="72" rx="24" fill="#0B1225" stroke="#3B82F6"/><text x="457" y="585">Metal Detector</text>
<rect x="722" y="540" width="285" height="72" rx="24" fill="#0B1225" stroke="#8B5CF6"/><text x="769" y="585">Pregnancy Apps</text>
<rect x="1037" y="540" width="285" height="72" rx="24" fill="#0B1225" stroke="#A855F7"/><text x="1102" y="585">Floor Plan Apps</text>
</g>
</svg>
